<?xml version="1.0" encoding="UTF-8"?>
<svg width="752pt" height="752pt" version="1.1" viewBox="0 0 752 752" xmlns="http://www.w3.org/2000/svg">
 <g>
  <path d="m752 376c0 134.33-71.664 258.46-188 325.62-116.34 67.168-259.66 67.168-376 0-116.34-67.164-188-191.29-188-325.62s71.664-258.46 188-325.62c116.34-67.168 259.66-67.168 376 0 116.34 67.164 188 191.29 188 325.62" fill="#c362dd"/>
  <path d="m376 395.73c-5.2305 0-10.25 2.0781-13.953 5.7773-3.6992 3.7031-5.7773 8.7227-5.7773 13.953v110.23l-25.516-25.512c-3.6758-3.8086-8.7266-5.9805-14.02-6.0234-5.293-0.046875-10.383 2.0352-14.125 5.7773-3.7422 3.7422-5.8242 8.832-5.7812 14.125 0.046875 5.293 2.2188 10.344 6.0234 14.023l59.199 59.199v-0.003906c0.71875 0.5625 1.4766 1.0703 2.2695 1.5195 2.6562 2.1875 5.8672 3.5977 9.2773 4.0781 3.4062 0.48047 6.8828 0.011719 10.039-1.3555 1.457-0.73828 2.8164-1.6523 4.0469-2.7227 0.79297-0.44922 1.5508-0.95703 2.2695-1.5195l59.199-59.199-0.003906 0.003906c3.8086-3.6797 5.9805-8.7305 6.0234-14.023 0.046875-5.293-2.0352-10.383-5.7773-14.125-3.7422-3.7422-8.832-5.8242-14.125-5.7773-5.293 0.042969-10.344 2.2148-14.02 6.0234l-25.516 25.512v-110.23c0-5.2305-2.0781-10.25-5.7812-13.953-3.6992-3.6992-8.7188-5.7773-13.953-5.7773z" fill="#fff"/>
  <path d="m513.7 297.57c0.29688-3.4531 0.43359-6.9062 0.43359-10.359v-0.003906c-0.050781-42.27-20.93-81.797-55.809-105.68-34.879-23.879-79.285-29.035-118.71-13.793-39.426 15.246-68.809 48.938-78.551 90.07-27.566 1.7891-53.43 13.965-72.379 34.066-18.949 20.102-29.574 46.641-29.734 74.266-0.19531 25.648 8.8164 50.52 25.395 70.098 16.578 19.574 39.625 32.559 64.957 36.594 5.9766 1.2617 12.07 1.875 18.176 1.8359h29.598c7.0508 0 13.566-3.7617 17.09-9.8672 3.5234-6.1055 3.5234-13.625 0-19.73-3.5234-6.1055-10.039-9.8672-17.09-9.8672h-29.598c-3.668 0.019531-7.3281-0.36328-10.914-1.1445-23.098-3.6133-42.785-18.695-52.297-40.051-9.5078-21.359-7.5391-46.082 5.2305-65.664 12.773-19.586 34.602-31.355 57.98-31.27 1.7773 0.058594 3.5508 0.23047 5.3086 0.51563l2.5664 0.31641 2.5078 0.17578h-0.003907c4.5195-0.023437 8.8945-1.6133 12.371-4.5 4.1562-3.3906 6.7461-8.3281 7.1836-13.676 2.668-30.641 21.004-57.723 48.469-71.578s60.141-12.508 86.371 3.5586c26.23 16.066 42.281 44.562 42.418 75.32-0.070312 8.2617-1.2305 16.477-3.4531 24.43-1.6094 5.9336-0.36328 12.273 3.3672 17.156 3.7344 4.8828 9.5273 7.7461 15.676 7.7461h14.012-0.003906c17.625 0 33.91 9.4023 42.723 24.668 8.8125 15.262 8.8125 34.066 0 49.332-8.8125 15.262-25.098 24.664-42.723 24.664h-49.332c-7.0469 0-13.562 3.7617-17.086 9.8672-3.5273 6.1055-3.5273 13.625 0 19.73 3.5234 6.1055 10.039 9.8672 17.086 9.8672h49.332c30.621 0.03125 59.098-15.719 75.348-41.676 16.25-25.953 17.98-58.449 4.582-85.98-13.402-27.535-40.047-46.219-70.496-49.441z" fill="#fff"/>
 </g>
</svg>
