<?xml version="1.0" encoding="UTF-8"?>
<svg width="752pt" height="752pt" version="1.1" viewBox="0 0 752 752" xmlns="http://www.w3.org/2000/svg">
 <g>
  <path d="m752 376c0 134.33-71.664 258.46-188 325.62-116.34 67.168-259.66 67.168-376 0-116.34-67.164-188-191.29-188-325.62s71.664-258.46 188-325.62c116.34-67.168 259.66-67.168 376 0 116.34 67.164 188 191.29 188 325.62" fill="#ffd65b"/>
  <path d="m265.5 470.72h-63.141c-8.6836 0-15.789 7.1055-15.789 15.785v63.148c0 8.6719 7.1055 15.781 15.789 15.781h63.141c8.6758 0 15.785-7.1094 15.785-15.785v-63.145c0-8.6797-7.1094-15.785-15.785-15.785zm-15.789 63.141h-31.57v-31.57h31.57z" fill="#fff"/>
  <path d="m391.79 470.72h-63.141c-8.6797 0-15.789 7.1094-15.789 15.785v63.148c0 8.6719 7.1055 15.781 15.789 15.781h63.141c8.6758 0 15.785-7.1094 15.785-15.785v-63.145c0-8.6797-7.1094-15.785-15.785-15.785zm-15.789 63.141h-31.57v-31.57h31.57z" fill="#fff"/>
  <path d="m518.07 470.72h-63.141c-8.6797 0-15.789 7.1094-15.789 15.785v63.148c0 8.6758 7.1094 15.785 15.789 15.785h63.141c8.6758 0 15.785-7.1094 15.785-15.785v-63.148c0-8.6797-7.1094-15.785-15.785-15.785zm-15.785 63.141h-31.574v-31.57h31.574z" fill="#fff"/>
  <path d="m265.5 344.43h-63.141c-8.6797 0-15.789 7.1094-15.789 15.785v63.141c0 8.6797 7.1094 15.789 15.789 15.789h63.141c8.6758 0 15.785-7.1094 15.785-15.789v-63.141c0-8.6797-7.1094-15.785-15.785-15.785zm-15.789 63.141h-31.57v-31.57h31.57z" fill="#fff"/>
  <path d="m391.79 344.43h-63.141c-8.6797 0-15.789 7.1094-15.789 15.785v63.141c0 8.6797 7.1094 15.789 15.789 15.789h63.141c8.6758 0 15.785-7.1094 15.785-15.789v-63.141c0-8.6797-7.1094-15.785-15.785-15.785zm-15.789 63.141h-31.57v-31.57h31.57z" fill="#fff"/>
  <path d="m558.12 402.84-24.172-58.352c-3.3164-8.0117-12.594-11.867-20.609-8.5391l-58.352 24.172c-8.0117 3.3281-11.855 12.613-8.543 20.625l24.172 58.332c3.3164 8.0195 12.594 11.859 20.625 8.543l58.332-24.172c8.0234-3.3125 11.859-12.598 8.5469-20.609zm-64.379 9.5703-12.086-29.168 29.164-12.086 12.086 29.168z" fill="#fff"/>
  <path d="m265.5 218.15h-63.141c-8.6797 0-15.789 7.1094-15.789 15.785v63.141c0 8.6797 7.1094 15.789 15.789 15.789h63.141c8.6758 0 15.785-7.1094 15.785-15.789v-63.141c0-8.6758-7.1094-15.785-15.785-15.785zm-15.789 63.141h-31.57v-31.57h31.57z" fill="#fff"/>
  <path d="m407.51 233.84-58.352-24.172c-8.0117-3.3281-17.297 0.51953-20.625 8.5391l-24.156 58.332c-3.3281 8.0195 0.51953 17.312 8.543 20.625l58.332 24.172c8.0117 3.3281 17.309-0.51953 20.625-8.543l24.172-58.332c3.3164-8.0039-0.51953-17.301-8.5391-20.621zm-38.754 52.293-29.168-12.09 12.09-29.164 29.164 12.086z" fill="#fff"/>
  <path d="m560.83 235.83-44.645-44.66c-6.1328-6.1367-16.188-6.1367-22.32 0l-44.648 44.66c-6.1328 6.1367-6.1328 16.188 0 22.324l44.648 44.66c6.1328 6.1367 16.188 6.1367 22.32 0l44.645-44.66c6.1367-6.1406 6.1367-16.188 0-22.324zm-55.805 33.484-22.324-22.32 22.324-22.324 22.32 22.324z" fill="#fff"/>
 </g>
</svg>
