<?xml version="1.0" encoding="UTF-8"?>
<svg width="752pt" height="752pt" version="1.1" viewBox="0 0 752 752" xmlns="http://www.w3.org/2000/svg">
 <g>
  <path d="m752 376c0 134.33-71.664 258.46-188 325.62-116.34 67.168-259.66 67.168-376 0-116.34-67.164-188-191.29-188-325.62s71.664-258.46 188-325.62c116.34-67.168 259.66-67.168 376 0 116.34 67.164 188 191.29 188 325.62" fill="#c362dd"/>
  <path d="m536.07 241.23c-0.046875-0.23047-0.09375-0.46094-0.14062-0.69531 0.046875 0.60156 0.09375 1.2031 0.09375 1.8047 0 0.32422-0.14062 1.8516-0.14062 2.1289-0.18359 0.92578-0.46094 1.8047-0.73828 2.6836l-0.14062 0.41797-0.046875 0.18359c-0.046875 0.09375-0.046875 0.18359-0.09375 0.23047 0 0.046875 0 0.046875-0.046875 0.09375 0 0.046875 0 0.046875-0.046875 0.046875-0.046875 0.09375-0.09375 0.18359-0.14062 0.27734-0.18359 0.37109-0.37109 0.73828-0.55469 1.1094-0.60156 1.1094-1.2969 2.1719-2.0352 3.2383 0.09375-0.09375 0.14062-0.14062 0.14062-0.18359-0.046875 0.046876-0.09375 0.14063-0.23047 0.27734-0.046874 0.09375-0.09375 0.14062-0.14062 0.18359-0.14063 0.14062-0.23047 0.27734-0.37109 0.46094-0.23047 0.27734-0.50781 0.60156-0.73828 0.87891-1.0156 1.1562-2.1289 2.3125-3.2852 3.375-0.37109 0.32422-0.73828 0.64844-1.1094 0.97266-0.18359 0.14062-0.32422 0.32422-0.50781 0.46094-0.18359 0.18359-0.41797 0.37109-0.60156 0.55469-0.37109 0.32422-0.78516 0.64844-1.1562 0.97266 0 0-0.046875 0.046875-0.09375 0.046875-0.046875 0.046875-0.09375 0.046875-0.09375 0.09375l-0.14062 0.14062c-0.14062 0.09375-0.32422 0.23047-0.41797 0.27734-0.18359 0.14062-0.41797 0.27734-0.60156 0.41797-0.23047 0.14062-0.41797 0.32422-0.64844 0.46094-0.18359 0.14062-0.37109 0.23047-0.50781 0.37109-3.793 2.6367-7.7695 4.9023-11.84 7.0312-1.8047 0.92578-3.6055 1.8047-5.457 2.6367-0.83203 0.37109-1.6172 0.73828-2.4492 1.1094 0 0-0.046875 0-0.09375 0.046875s-0.14062 0.046875-0.23047 0.09375h-0.046876c-0.32422 0.14062-0.78516 0.37109-0.87891 0.37109 0.14062-0.09375 0.27734-0.14063 0.46094-0.18359h-0.046875-0.046875c-0.23047 0.09375-0.46094 0.18359-0.73828 0.32422-3.793 1.5273-7.6758 2.9609-11.562 4.2539-4.3477 1.4805-8.7891 2.7734-13.18 3.9766-1.3398 0.37109-2.7305 0.73828-4.0703 1.0625-0.78516 0.18359-1.5742 0.37109-2.3125 0.60156-0.69531 0.18359-1.3867 0.37109-2.1289 0.50781-0.78516 0.18359-1.5273 0.37109-2.3125 0.55469-0.37109 0.09375-0.69531 0.18359-1.0625 0.23047-0.55469 0.14063-1.1562 0.23047-1.7109 0.37109-0.60156 0.14062-1.25 0.27734-1.8516 0.41797-0.60156 0.14062-1.25 0.27734-1.8516 0.41797-0.83203 0.18359-1.6641 0.32422-2.4961 0.50781-0.87891 0.18359-1.8047 0.37109-2.6836 0.55469-0.73828 0.14062-1.4336 0.27734-2.1719 0.41797-0.64844 0.14063-1.2969 0.23047-1.8945 0.37109-0.69531 0.14062-1.3398 0.23047-2.0352 0.37109-2.3594 0.41797-4.7188 0.78516-7.1211 1.1562-0.27734 0.046875-0.50781 0.09375-0.78516 0.14062-1.0156 0.14062-1.9883 0.32422-3.0078 0.46094-0.55469 0.09375-1.0625 0.14063-1.6172 0.23047-0.14062 0-0.27734 0.046875-0.41797 0.046875h-0.14062-0.046875-0.046875v-0.046875c-0.046875 0-0.09375-0.14062-0.14062-0.14062 0 0-0.046875 0.046875-0.09375 0.046875v-0.046875l-0.074219-0.015625s0 0.09375 0.046875 0.09375l-0.046875 0.09375c-0.09375 0-0.23047 0.046875-0.32422 0.046875h-0.14063c-0.18359 0.046875-0.37109 0.046875-0.50781 0.046875-0.97266 0.14062-1.8945 0.23047-2.8672 0.37109-1.8945 0.23047-3.8398 0.46094-5.7812 0.64844-1.7109 0.18359-3.4688 0.37109-5.1797 0.50781-0.92578 0.09375-1.8945 0.18359-2.8203 0.23047-1.0625 0.09375-2.082 0.18359-3.0977 0.27734-1.1562 0.09375-2.3125 0.18359-3.5156 0.27734-0.97266 0.046875-1.9414 0.14062-2.9609 0.18359-0.50781 0.046875-0.97266 0.09375-1.4805 0.09375-0.50781 0.046875-0.97266 0.046875-1.4805 0.09375-0.97266 0.046875-1.9414 0.09375-2.9141 0.14062-1.0156 0.046875-1.9883 0.09375-3.0078 0.14062-0.73828 0.046875-1.5273 0.09375-2.2656 0.09375-1.5273 0.046875-3.0078 0.14062-4.5312 0.14062-0.73828 0-1.5273 0.046875-2.2656 0.046875-0.97266 0.046875-1.9883 0.046875-3.0078 0.09375h-0.046875c-0.92578 0-1.8516 0.046875-2.7734 0.046875h-0.55469-2.6367-5.9648-0.18359c-0.87891 0-1.7578 0-2.6367-0.046875h-0.83203c-0.92578 0-1.8516-0.046875-2.7734-0.046875-2.082-0.046875-4.1641-0.09375-6.2422-0.18359-0.46094 0-0.92578-0.046875-1.3398-0.046875-0.46094 0-0.92578-0.046875-1.3398-0.046875-0.23047 0-0.46094 0-0.69531-0.046875-0.78516-0.046875-1.5273-0.046875-2.3125-0.09375-0.69531-0.046875-1.3867-0.046875-2.082-0.09375-0.50781 0-1.0156-0.14062-1.5273-0.14062-1.2031-0.09375-2.4492-0.27734-3.6523-0.27734h-0.046875c-0.50781 0-1.0156 0-1.5273-0.046874-0.50781 0-1.0156-0.046876-1.5273-0.09375-0.32422 0-0.69531-0.046876-1.0156-0.046876h-0.27734c-0.60156-0.046874-1.2031 0-1.8047-0.046874-1.9883-0.14063-4.0234-0.32422-6.0117-0.50781s-4.0234-0.37109-6.0117-0.60156c-0.18359 0-0.41797-0.046874-0.60156-0.046874-0.32422-0.046876-0.64844-0.046876-0.97266-0.09375h-0.18359c-0.18359 0-0.37109-0.046876-0.60156-0.046876-0.27734-0.046874-0.60156-0.046874-0.87891-0.09375h-0.09375c-1.2031-0.14062-2.4062-0.27734-3.6055-0.41797-0.97266-0.14062-1.8945-0.23047-2.8672-0.37109-0.14062 0-0.23047-0.046875-0.37109-0.09375-0.046875 0-0.09375-0.046875-0.14062-0.046875v-0.09375 0.046875 0.046875-0.09375l-0.046875 0.09375v0.046875l-0.046875-0.09375v0.14062s-0.09375-0.09375-0.09375-0.14062l-0.09375 0.09375h-0.046875-0.046875-0.09375c-0.046875 0-0.046875 0.046875-0.046875 0.046875v-0.046875c-0.09375 0-0.18359 0-0.23047-0.046875h-0.09375c-0.37109-0.046875-0.78516-0.09375-1.1562-0.18359-1.3398-0.18359-2.6367-0.37109-3.9766-0.60156-0.60156-0.09375-1.2031-0.18359-1.8516-0.27734-0.60156-0.09375-1.2031-0.18359-1.8516-0.27734-0.60156-0.09375-1.25-0.18359-1.8516-0.27734-2.0352-0.32422-4.0703-0.69531-6.1055-1.1094-0.09375 0-0.18359-0.046874-0.23047-0.046874-0.92578-0.18359-1.8047-0.37109-2.7305-0.50781-2.4961-0.46094-4.9961-0.97266-7.4453-1.5273-0.18359-0.046875-0.41797-0.09375-0.64844-0.14062-1.0156-0.23047-2.0352-0.41797-3.0508-0.64844 0 0-17.02-4.5312-17.715-4.8086-1.5273-0.46094-3.0508-0.97266-4.5781-1.4336-0.046875 0-0.09375 0-0.09375-0.046875-0.69531-0.18359-1.3398-0.41797-1.9883-0.64844-3.6523-1.25-7.3086-2.5898-10.914-4.0234-0.14062-0.046875-0.32422-0.14062-0.46094-0.18359-0.14062-0.046876-0.32422-0.14063-0.46094-0.18359-0.046876 0-0.046876-0.046875-0.09375-0.046875h0.046874c-0.046874 0-0.09375-0.046875-0.14062-0.046875 0.046874 0 0.046874 0.046875 0.09375 0.046875-0.046876-0.046875-0.14063-0.046875-0.23047-0.09375-0.046875 0-0.09375-0.046875-0.14062-0.046875s-0.046875 0-0.09375-0.046875h0.046875c-0.69531-0.32422-1.3867-0.60156-2.1289-0.92578-1.8945-0.83203-3.7461-1.7578-5.5977-2.6836-3.3281-1.6641-6.5664-3.5156-9.7109-5.5508-1.4336-0.92578-2.8203-1.9414-4.207-2.9141-0.14063-0.09375-0.23047-0.18359-0.37109-0.27734l0.55469 0.41797c-0.46094-0.32422-0.69531-0.55469-0.73828-0.60156h0.046875c-0.14062-0.09375-0.23047-0.18359-0.37109-0.32422-0.50781-0.41797-1.0156-0.87891-1.5273-1.2969-1.2031-1.0625-2.4062-2.1719-3.5156-3.3281-0.09375-0.09375-0.41797-0.46094-0.78516-0.92578-0.55469-0.60156-1.0625-1.2031-1.5742-1.8047v0.046875c0.09375 0.14062 0.14062 0.18359 0.14062 0.23047-0.046874-0.09375-0.32422-0.46094-0.50781-0.69531v-0.046875l-0.1875-0.1875c-0.41797-0.60156-0.83203-1.25-1.25-1.8945-0.41797-0.69531-0.78516-1.3867-1.1562-2.1289v-0.046875c-0.09375-0.23047-0.46094-1.1562-0.46094-1.2031 0.14063 0.18359 0.23047 0.46094 0.32422 0.69531-0.18359-0.55469-0.41797-1.1094-0.55469-1.6641-0.27734-0.92578-0.37109-1.8516-0.60156-2.7734-0.046875-0.64844-0.046875-1.2969-0.046875-1.9414v-0.41797s-0.046875 0 0-0.046875v-0.046875-0.046875l0.046875-0.18359v-0.046874c0-0.32422 0.046875-0.60156 0.09375-0.92578 0 0.32422-0.046875 0.55469-0.046875 0.73828 0.046875-0.37109 0.14062-0.83203 0.23047-1.25 0.14062-0.69531 0.37109-1.3398 0.55469-1.9883 0.046876-0.18359 0.14063-0.41797 0.23047-0.60156 0.64844-1.25 1.25-2.543 2.0352-3.7461 0.37109-0.60156 0.78516-1.1562 1.1562-1.7109 0.18359-0.18359 0.32422-0.41797 0.50781-0.60156 1.1562-1.3867 2.4492-2.6836 3.793-3.9297 0.64844-0.60156 1.2969-1.2031 1.9883-1.8047 0.37109-0.32422 0.73828-0.64844 1.1562-0.92578 0.09375-0.09375 0.32422-0.27734 0.55469-0.41797-0.09375 0.046875-0.18359 0.14062-0.27734 0.18359 0.046875-0.046875 0.09375-0.09375 0.14062-0.09375 0.27734-0.23047 0.46094-0.37109 0.50781-0.41797-0.046875 0-0.046875 0.046875-0.09375 0.09375l0.046875-0.046875c0.37109-0.27734 0.73828-0.50781 1.1094-0.78516 0.92578-0.64844 1.8945-1.2969 2.8672-1.9414 1.8516-1.2031 3.6992-2.3125 5.5977-3.375 4.0234-2.2656 8.2305-4.2539 12.441-6.1055 0.27734-0.09375 0.60156-0.27734 0.87891-0.37109 0.55469-0.23047 1.0625-0.41797 1.6172-0.64844 1.3867-0.55469 2.7305-1.0625 4.1172-1.5742 2.5898-0.97266 5.1797-1.8516 7.8164-2.7305 11.934-3.8867 24.141-6.7969 36.445-9.1094 3.4219-0.64844 6.8438-1.2031 10.312-1.7578 1.6172-0.23047 3.2852-0.50781 4.9023-0.73828 0.18359 0 0.60156-0.09375 0.97266-0.14062 0.046875 0 0.14062 0 0.23047-0.046875 0.09375 0 0.23047-0.046875 0.32422-0.046875h0.09375c0.69531-0.09375 1.3867-0.18359 2.082-0.27734 7.3086-0.92578 14.613-1.6172 21.969-2.1719 30.43-2.2188 61.188-1.4805 91.48 2.4062 0.09375 0 0.18359 0 0.27734 0.046876-0.046874 0-0.14062 0-0.18359-0.046876 0.37109 0.046876 0.55469 0.046876 0.69531 0.046876-0.09375 0-0.27734 0-0.41797-0.046876 0.23047 0.046876 0.41797 0.046876 0.60156 0.09375 0.78516 0.09375 1.5273 0.23047 2.2656 0.32422 1.8945 0.27734 3.7461 0.55469 5.6406 0.87891 3.2852 0.55469 6.5664 1.1094 9.8516 1.7578 6.3359 1.2031 12.672 2.5898 18.914 4.207 5.7812 1.4805 11.516 3.1445 17.156 5.043 2.6836 0.92578 5.3633 1.8516 8 2.8672 1.2031 0.46094 2.3594 0.92578 3.5156 1.3867 0.46094 0.18359 0.97266 0.41797 1.4336 0.60156-0.23047-0.046875-0.37109-0.14062-0.50781-0.14062 0.37109 0.14062 0.83203 0.27734 1.0625 0.37109 4.3945 1.9414 8.7422 4.0703 12.949 6.4766 1.9414 1.1094 3.8398 2.3125 5.6875 3.5625 0.83203 0.55469 1.6172 1.1094 2.4062 1.7109 0.27734 0.18359 0.50781 0.37109 0.78516 0.55469-1.2969-1.1094 1.25 0.92578 0.27734 0.23047-0.09375-0.046875-0.18359-0.14062-0.27734-0.23047 0.046875 0.046875 0.09375 0.09375 0.14062 0.09375 2.8203 2.3125 5.3633 4.8086 7.7227 7.5391 0.09375 0.14062 0.18359 0.23047 0.27734 0.37109 0.50781 0.69531 0.97266 1.4336 1.4336 2.1719 0.37109 0.64844 0.73828 1.2969 1.0625 1.9414 0.09375 0.18359 0.18359 0.32422 0.23047 0.50781 0.41797 1.25 0.83203 2.4961 1.1094 3.793 0 0.09375 0.046875 0.14062 0.046875 0.23047 0-0.14062 0-0.23047-0.046875-0.37109-0.58203-1.3633-0.21094 1.7812-0.30469 1.4102z" fill="#fff"/>
  <path d="m535.93 333.5c0 0.09375 0.046875 0.18359 0.046875 0.23047s-0.32422 0.97266-0.83203 2.5898c0 0.046876-0.046875 0.09375-0.046875 0.14063 0 0.09375-0.046875 0.14062-0.046875 0.23047v0.046875c0 0.046875 0 0.09375-0.046875 0.09375h0.09375c0 0.09375 0.046875 0.14062 0.046875 0.23047 0 0.046875-0.14062 0.09375-0.14062 0.14062 0 0-0.046875 0.046875-0.09375 0.046875l-0.046875 0.046875c-0.046875 0.09375-0.09375 0.23047-0.18359 0.37109v0.046875c-0.09375 0.14062-0.14062 0.32422-0.18359 0.41797-0.23047 0.46094-0.46094 0.87891-0.73828 1.2969-0.27734 0.50781-0.60156 0.97266-0.87891 1.4805-0.18359 0.27734-0.37109 0.55469-0.55469 0.83203 0.18359-0.14063-0.73828 1.1562-0.69531 0.92578-1.2969 1.4805-2.5898 2.9141-4.0234 4.2539-0.83203 0.78516-1.6641 1.5273-2.543 2.2188-0.27734 0.23047-0.55469 0.46094-0.87891 0.69531-0.64844 0.60156-1.2969 1.1562-0.46094 0.37109-0.046875 0-0.046875 0.046875-0.09375 0.046875l-0.046875 0.046875c-0.41797 0.37109-0.87891 0.69531-1.3867 0.97266-4.3008 3.0508-8.8789 5.6406-13.551 8-1.8047 0.87891-3.6055 1.7578-5.457 2.5898-0.27734 0.14062-2.543 1.3398-2.7305 1.2031 0.37109-0.14062 0.73828-0.32422 1.1094-0.46094-0.37109 0.14062-0.73828 0.32422-1.1094 0.46094-0.55469 0.23047-1.1562 0.46094-1.7109 0.69531-18.871 7.4922-38.895 12.023-58.922 15.125-1.4805 0.23047-2.9141 0.46094-4.3945 0.64844-0.46094 0.046875-0.87891 0.18359-1.3398 0.18359h-0.09375-0.09375-0.046876l-0.039062-0.015625h-0.09375-0.09375-0.046875-0.09375-0.046875-0.09375c-0.18359 0-0.32422 0.046875-0.41797 0.046875-3.1914 0.41797-6.3828 0.78516-9.5273 1.1094-6.0117 0.64844-12.023 1.1562-18.035 1.5273-9.6211 0.60156-19.285 0.83203-28.906 0.83203h-0.23047c-1.4336 0-2.8672 0-4.3008-0.046875-2.543 0-5.0859-0.046875-7.6328-0.14062-0.78516 0-1.5273-0.046875-2.3125-0.046875-0.46094 0-0.97266-0.046875-1.4336-0.046875h-0.32422-0.50781c-0.55469 0-1.1562-0.046875-1.7109-0.046875-1.0156-0.046875-2.0352-0.09375-3.0508-0.14062s-1.9883-0.09375-3.0078-0.14062h-0.09375c-0.18359 0-0.37109 0-0.55469-0.046875-1.0625-0.046875-2.082-0.14062-3.1445-0.18359h-0.046875c-1.25-0.09375-2.4492-0.14062-3.6992-0.23047h-0.046875c-2.3594-0.14063-4.7188-0.37109-7.0312-0.55469h-0.046875c-0.27734 0-0.55469-0.046875-0.83203-0.09375-0.69531-0.046875-1.3867-0.14062-2.082-0.18359-0.14063 0-0.27734 0-0.41797-0.046875-0.41797-0.046875-0.83203-0.09375-1.2031-0.14062h-0.09375c-0.18359 0-0.37109-0.046875-0.55469-0.046875-0.14062 0-0.32422-0.046875-0.46094-0.046875-0.27734-0.046875-0.55469-0.046875-0.83203-0.09375-0.46094-0.046875-0.92578-0.09375-1.4336-0.14062-1.25-0.14062-2.4961-0.27734-3.7461-0.41797-0.55469-0.046874-1.1562-0.14062-1.7109-0.18359-0.41797-0.046875-0.87891-0.09375-1.2969-0.14062-0.23047-0.046875-0.46094-0.046875-0.69531-0.09375-0.32422-0.046875-0.69531-0.09375-1.0156-0.14062-0.23047-0.046875-0.46094-0.046875-0.69531-0.09375-0.09375 0-0.18359 0-0.32422-0.046875h-0.046875c-0.046875 0-0.14062 0-0.18359-0.046875-0.09375 0-0.18359 0-0.23047-0.046875h-0.14062-0.18359-0.09375-0.046874v-0.046875h-0.09375-0.046876v0.046875 0.046875l-0.16797 0.019531v-0.046875l-0.046875 0.046875v0.046875h-0.046875-0.046875-0.09375l-0.046875-0.09375c-0.046875 0-0.09375-0.046875-0.09375-0.046875-0.046875 0-0.09375 0-0.18359-0.046875-0.32422-0.046875-0.60156-0.09375-0.87891-0.14062h-0.14062c-0.046875 0-0.09375 0-0.14062-0.046875-1.25-0.18359-2.4492-0.37109-3.6992-0.55469-0.09375 0-0.23047-0.046876-0.32422-0.046876-0.87891-0.14062-1.7578-0.27734-2.6367-0.41797-0.14063 0-0.23047-0.046875-0.37109-0.046875s-0.23047-0.046875-0.37109-0.046875c-0.18359-0.046875-0.37109-0.046875-0.55469-0.09375-0.69531-0.14062-1.4336-0.23047-2.1289-0.37109-0.37109-0.046875-0.78516-0.14062-1.1562-0.18359-0.09375 0-0.18359-0.046875-0.32422-0.046875-0.83203-0.14062-1.6172-0.27734-2.4492-0.41797-0.69531-0.14062-1.3867-0.23047-2.1289-0.37109-0.37109-0.09375-0.78516-0.14062-1.1562-0.23047-1.0156-0.18359-1.9883-0.37109-3.0078-0.60156-0.09375 0-0.18359-0.046876-0.32422-0.046876-0.92578-0.18359-1.8516-0.37109-2.7734-0.60156-0.09375 0-0.14062-0.046875-0.23047-0.046875-0.92578-0.18359-1.8516-0.41797-2.8203-0.60156h-0.09375c-0.97266-0.23047-1.8945-0.41797-2.8203-0.64844-0.64844-0.14062-1.2969-0.32422-1.9883-0.46094-0.14062-0.046876-0.32422-0.09375-0.46094-0.09375-0.27734-0.046876-0.50781-0.14063-0.78516-0.18359-0.046875 0-0.09375 0-0.14062-0.046875-0.69531-0.18359-1.3867-0.32422-2.082-0.50781-1.1094-0.27734-2.2188-0.55469-3.3281-0.83203-1.2969-0.32422-2.543-0.69531-3.8398-1.0625-0.50781-0.14062-1.0156-0.27734-1.5273-0.41797-0.50781-0.14062-1.0156-0.27734-1.5273-0.46094-0.55469-0.18359-1.1562-0.32422-1.7109-0.50781-0.78516-0.23047-1.5742-0.46094-2.3594-0.69531-4.8086-1.4805-9.5742-3.1445-14.246-4.9961-0.64844-0.23047-1.2969-0.50781-1.8945-0.78516-0.27734-0.09375-0.55469-0.23047-0.83203-0.32422 0 0-0.046875 0-0.046875-0.046875h-0.046875c0.73828 0.32422-0.83203-0.32422-0.97266-0.37109 0.046874 0 0.23047 0.09375 0.55469 0.23047-0.046875-0.046875-0.14062-0.046875-0.18359-0.09375h-0.046875c-0.18359-0.046875-0.32422-0.14062-0.50781-0.23047-0.18359-0.09375-0.37109-0.14062-0.50781-0.23047h-0.046875c-0.046875 0-0.046875 0-0.09375-0.046876-0.046875 0-0.09375-0.046874-0.14062-0.046874 0 0-0.046875 0-0.046875-0.046876-0.09375-0.046874-0.14062-0.046874-0.23047-0.09375h-0.046876c-0.41797-0.18359-0.83203-0.37109-1.2031-0.55469-1.1562-0.50781-2.3125-1.1562-3.4688-1.6641-0.14063-0.046874-0.23047-0.14062-0.37109-0.18359-0.37109-0.18359-0.78516-0.41797-1.1562-0.60156s-0.78516-0.41797-1.1562-0.60156-0.78516-0.41797-1.1562-0.60156c-0.37109-0.23047-0.78516-0.41797-1.1562-0.64844-0.37109-0.18359-0.69531-0.37109-1.0625-0.60156-0.55469-0.32422-1.0625-0.60156-1.5742-0.92578-0.50781-0.32422-1.0156-0.60156-1.5273-0.92578-0.32422-0.18359-0.64844-0.41797-0.97266-0.60156-0.09375-0.046875-0.14062-0.09375-0.23047-0.14062-0.27734-0.18359-0.60156-0.37109-0.87891-0.60156-0.32422-0.18359-0.64844-0.41797-0.97266-0.64844-0.046875-0.046875-0.09375-0.046875-0.14062-0.09375-0.09375-0.046875-0.14062-0.09375-0.23047-0.14062-0.37109-0.23047-0.73828-0.50781-1.1562-0.78516-0.37109-0.27734-0.78516-0.55469-1.1562-0.83203-0.046875-0.046875-0.14062-0.09375-0.18359-0.14062-0.046875-0.046875-0.18359-0.14062-0.32422-0.23047-0.09375-0.046875-0.18359-0.14062-0.23047-0.18359 0 0-0.046875 0-0.046875-0.046875 1.0156 0.87891-1.7578-1.25 0 0 0 0-0.046875-0.046875-0.09375-0.046875h-0.046875-0.046875s-0.046875-0.046875-0.09375-0.046875c-0.14062-0.09375-0.23047-0.18359-0.27734-0.23047-0.97266-0.78516-1.9414-1.6172-2.8672-2.4492-0.18359-0.18359-0.37109-0.32422-0.55469-0.50781-0.14062-0.14062-0.27734-0.23047-0.37109-0.37109-0.14062-0.14062-0.32422-0.27734-0.46094-0.46094l-0.65234-0.65234c-0.23047-0.23047-0.46094-0.46094-0.69531-0.73828-0.27734-0.27734-0.55469-0.60156-0.83203-0.87891l-0.09375-0.09375c0-0.046875-0.046875-0.046875-0.046875-0.09375-0.32422-0.37109-0.60156-0.69531-0.92578-1.0625l-0.046875-0.046875c0.046875 0.09375 0.046875 0.09375-0.14062-0.18359-0.046875-0.046875-0.046875-0.09375-0.09375-0.18359-0.046875-0.09375-0.18359-0.18359-0.18359-0.27734h-0.046875s-0.046875-0.046876-0.046875-0.046876l-0.046875-0.046874v0.046874h-0.046875l-0.046875-0.09375h0.09375c-0.14062-0.23047-0.32422-0.46094-0.46094-0.69531-0.14062-0.18359-0.27734-0.41797-0.37109-0.60156l-0.27734-0.46094c-0.23047-0.37109-0.41797-0.69531-0.64844-1.0625 0-0.046875-0.046875-0.09375-0.046875-0.14062-0.18359-0.37109-0.37109-0.69531-0.55469-1.0625-0.14062-0.27734-0.27734-0.73828-0.46094-1.0625 0 0.046875 0.046875 0.09375 0.046875 0.14062 0.14062 0.32422 0.27734 0.78516 0.32422 0.87891v-0.046875-0.046875c0-0.046875-0.046874-0.14062-0.046874-0.18359v-0.046874-0.046876c-0.09375-0.23047-0.18359-0.50781-0.27734-0.64844 0-0.046875-0.046875-0.046875-0.046875-0.09375v-0.046875c0.046875 0 0.046875 0.046875 0.046875 0.046875-0.046875-0.18359-0.14062-0.37109-0.18359-0.55469-0.23047-0.73828-0.46094-1.4805-0.64844-2.2188 0-0.09375-0.046874-0.14063-0.046874-0.23047l-0.046876-0.046875c-0.046874-0.14062-0.09375-0.27734-0.09375-0.41797v0.09375-0.046875-0.046875 0.046875-0.046875c0-0.09375 0-0.23047-0.046874-0.32422v-0.14062c-0.09375-0.46094-0.14063-0.92578 0-0.37109-0.046876-0.27734-0.046876-0.37109-0.046876-0.41797 0 0.046875 0.14063 0.37109 0.14063 0.73828 0 0.09375 0.046874 0.14062 0.046874 0.23047v0.09375c0-0.09375-0.046874-0.18359-0.046874-0.27734 0-0.78516-0.046876-1.5742-0.046876-2.3594l0.042969-55.512c1.3867 1.1562 2.8672 2.2656 4.3477 3.3281 0.18359 0.14062 0.41797 0.27734 0.60156 0.41797 5.2266 3.6055 10.867 6.707 16.512 9.3438 8.6953 4.1172 17.758 7.4922 26.961 10.312 2.2656 0.69531 6.1953 1.8516 8.6953 2.4961 0.73828 0.18359 1.4336 0.37109 2.1719 0.55469 0.92578 0.23047 2.8672 0.73828 2.9141 0.73828 0.69531 0.18359 1.3867 0.37109 2.0352 0.55469 0.64844 0.14062 1.2969 0.32422 1.8945 0.46094 0.046875 0 0.14062 0 0.18359 0.046876 12.348 2.8672 24.883 5.0859 37.508 6.6602 0.73828 0.09375 1.4336 0.18359 2.1719 0.27734 18.59 2.2188 37.32 3.1914 55.914 3.1445 4.1172 0 8.2305-0.09375 12.348-0.18359 0.27734 0 0.60156 0 0.87891-0.046875 3.9297-0.14062 7.8164-0.27734 11.746-0.50781 20.211-1.1562 40.469-3.5625 60.309-7.6758 0.64844-0.14062 1.2969-0.27734 1.9414-0.41797 0.55469-0.14063 1.1094-0.23047 1.7109-0.37109 0.27734-0.046875 0.55469-0.14062 0.83203-0.18359 2.8672-0.64844 5.6875-1.2969 8.5078-2.0352 13.734-3.4688 27.238-8 40.004-14.105 3.6055-1.7109 7.2148-3.6055 10.73-5.6875 0.37109-0.23047 0.78516-0.46094 1.1562-0.69531 0.50781-0.32422 1.0156-0.64844 1.4805-0.97266 0.50781-0.32422 1.0625-0.69531 1.5742-1.0156 0.27734-0.18359 0.55469-0.37109 0.78516-0.55469 1.5742-1.0625 3.0977-2.2188 4.5781-3.4219l0.003906 54.898c0 0.92578-0.27734 2.3125-0.14062 3.375 0.046875-0.14062 0.09375-0.27734 0.14062-0.41797 0.046875-0.14063 0.09375-0.27734 0.14062-0.41797-0.09375 0.27734-0.14062 0.69531-0.18359 0.97266-0.1875 0.09375-0.23438 0.14062-0.23438 0.23438z" fill="#fff"/>
  <path d="m532.27 366.71c1.2969-0.92578 2.543-1.8516 3.7461-2.8672v57.578c0 0.27734-0.046875 0.55469-0.046875 0.83203-0.046875 0.23047-0.09375 0.46094-0.14062 0.69531 0 0.046876-0.046875 0.14063-0.046875 0.18359 0 0.09375-0.046875 0.14062-0.046875 0.23047-0.046875 0.18359-0.09375 0.32422-0.14062 0.50781v0.046874c-0.14062 0.46094-0.27734 0.92578-0.41797 1.4336-0.046876 0.14062-0.14063 0.41797-0.27734 0.69531 0 0.046875-0.046875 0.09375-0.046875 0.09375 0 0.046875-0.046875 0.09375-0.046875 0.14062l-0.18359 0.37109c0 0.046874-0.046875 0.09375-0.046875 0.14062-0.14062 0.27734-0.27734 0.55469-0.46094 0.83203-0.09375 0.14062-0.14063 0.27734-0.23047 0.41797-0.046875 0.046876-0.046875 0.14063-0.09375 0.18359-0.046875 0.09375-0.09375 0.18359-0.14062 0.23047-0.09375 0.14062-0.14062 0.23047-0.23047 0.37109-0.46094 0.73828-0.92578 1.4805-1.4336 2.2188l-0.046875 0.046875c-0.046875 0.046875-0.046875 0.09375-0.09375 0.14062s-0.046875 0.09375-0.09375 0.14062-0.09375 0.14062-0.14062 0.18359c-0.41797 0.50781-0.87891 1.0156-1.2969 1.5273-1.8945 2.082-3.9297 3.9766-6.1055 5.7812-0.09375 0.09375-0.18359 0.14062-0.27734 0.23047-0.046875 0.046875-0.14062 0.09375-0.18359 0.14062l-0.046875 0.046875c-0.046875 0.046875-0.14062 0.09375-0.18359 0.14062h-0.046875l-0.046875 0.046875c-0.09375 0.046875-0.18359 0.14062-0.27734 0.18359 0 0 0.046874 0 0.046874-0.046875-0.46094 0.32422-0.87891 0.64844-1.3398 0.97266-1.4336 1.0156-2.9141 1.9883-4.3945 2.8672-2.3125 1.4336-4.6719 2.7305-7.0742 3.9766-0.09375 0.046875-0.18359 0.09375-0.27734 0.14062-1.4336 0.73828-2.8672 1.4336-4.3008 2.1289-0.83203 0.37109-1.6641 0.78516-2.4961 1.1562-0.18359 0.09375-0.37109 0.18359-0.55469 0.23047-0.32422 0.14062-0.64844 0.27734-0.97266 0.41797-0.046875 0-0.09375 0.046875-0.14062 0.046875h-0.046875c-0.09375 0.046875-0.23047 0.09375-0.32422 0.14062-0.046876 0-0.046876 0-0.046876 0.046875-0.046874 0.046875-0.14062 0.046875-0.18359 0.09375h-0.046875-0.046875s-0.046875 0-0.046875 0.046875c-0.60156 0.23047-1.2031 0.46094-1.8047 0.73828-1.2969 0.50781-2.6367 1.0156-3.9297 1.5273-2.6367 0.97266-5.3203 1.8945-8 2.7734-5.6406 1.8516-11.332 3.4688-17.113 4.9023-6.3359 1.5742-12.719 2.9609-19.148 4.1641-3.375 0.64844-6.7539 1.2031-10.176 1.7578-1.6641 0.27734-3.3281 0.50781-5.043 0.73828-0.14062 0-0.23047 0.046875-0.37109 0.046875h-0.046875-0.09375c-0.27734 0.046875-0.78516 0.09375-1.2031 0.14062 0 0.14062 0 0-0.046875 0 0 0-0.046875 0.23047-0.09375 0.23047s-0.09375-0.09375-0.14062-0.09375l-0.046875-0.046875c-0.55469 0.09375-1.5273 0.18359-1.8047 0.23047-7.5391 0.97266-15.168 1.6641-22.754 2.2188-0.83203 0.046875-1.6641 0.09375-2.543 0.18359-0.50781 0.046876-1.0156 0.046876-1.5273 0.09375-0.50781 0.046876-1.0156 0.046876-1.5273 0.09375-0.60156 0.046876-1.2031 0.09375-1.8516 0.09375-21.645 1.2031-43.379 0.87891-64.934-0.97266-3.4219-0.27734-6.8438-0.64844-10.223-1.0156-1.6172-0.18359-3.2383-0.37109-4.8086-0.55469-0.78516-0.09375-1.5742-0.18359-2.4062-0.27734-0.27734-0.046875-0.50781-0.046875-0.78516-0.09375h-0.27734-0.18359v0.09375l0.046875 0.09375h-0.09375-0.046875c0-0.18359-0.046875-0.23047-0.046875-0.23047-0.046875 0-0.046875 0.09375-0.09375 0.09375-6.3828-0.87891-12.672-1.9883-19.008-3.1914-9.6211-1.8516-19.191-4.1172-28.582-6.9375-1.5273-0.46094-3.0078-0.92578-4.4844-1.3867-0.46094-0.14062-0.87891-0.27734-1.3398-0.41797-0.32422-0.09375-0.60156-0.18359-0.87891-0.32422-1.2969-0.41797-2.543-0.87891-3.8398-1.3398-0.64844-0.23047-1.25-0.46094-1.8945-0.69531h-0.046874c-0.23047-0.09375-0.50781-0.18359-0.73828-0.27734-0.37109-0.14062-0.73828-0.27734-1.1094-0.41797-0.78516-0.27734-1.5273-0.60156-2.3125-0.87891h-0.046875c-0.46094-0.18359-0.87891-0.37109-1.3398-0.50781-0.37109-0.14062-0.73828-0.32422-1.1094-0.46094h0.046874c-0.046874 0-0.09375-0.046875-0.18359-0.09375-0.09375-0.046875-0.18359-0.09375-0.32422-0.14062-0.046875 0-0.09375-0.046875-0.14062-0.046875-0.14062-0.046875-0.23047-0.09375-0.37109-0.18359h-0.046875-0.046875c-0.32422-0.14062-0.64844-0.27734-0.97266-0.41797-0.27734-0.14062-0.55469-0.23047-0.83203-0.37109-0.09375-0.046876-0.23047-0.09375-0.32422-0.14063-0.46094-0.18359-0.87891-0.41797-1.3398-0.60156-0.55469-0.23047-1.1094-0.50781-1.6172-0.78516-0.73828-0.37109-1.4805-0.69531-2.1719-1.0625-2.082-1.0156-4.1172-2.1289-6.1055-3.2852-0.14062-0.09375-0.32422-0.18359-0.46094-0.27734-0.92578-0.55469-1.8945-1.1094-2.8203-1.7109-1.3398-0.87891-2.6836-1.7578-3.9766-2.6836-0.14063-0.09375-0.73828-0.50781-1.0625-0.78516l-0.046876-0.046875s-0.046874 0.046875-0.046874 0c0 0 0 0.046875-0.046876 0.046875 0 0-0.046874-0.09375-0.046874-0.09375v-0.046875c-0.046876-0.046875-0.046876-0.09375-0.09375-0.09375-0.046876 0-0.046876-0.046875-0.09375-0.09375-0.14063-0.09375-0.27734-0.23047-0.37109-0.32422-0.18359-0.14062-0.37109-0.32422-0.55469-0.46094-0.09375-0.046875-0.18359-0.14062-0.23047-0.18359-0.14063-0.09375-0.23047-0.18359-0.37109-0.27734-0.09375-0.09375-0.18359-0.18359-0.32422-0.27734-0.32422-0.27734-0.64844-0.55469-0.92578-0.83203-0.23047-0.18359-0.41797-0.37109-0.64844-0.60156-0.27734-0.23047-0.50781-0.50781-0.78516-0.73828l-0.46094-0.46094c-0.09375-0.14062-0.23047-0.23047-0.32422-0.32422-0.73828-0.73828-1.4805-1.5742-2.1719-2.3594-0.09375-0.09375-0.55469-0.69531-0.87891-1.0625 0 0-0.046874-0.046876-0.046874-0.046876l-0.046876-0.046874c-0.046874-0.046876-0.09375-0.14063-0.14062-0.18359-0.046876-0.09375-0.09375-0.14062-0.14063-0.23047 0 0 0-0.046875-0.046874-0.046875-0.14063-0.23047-0.27734-0.41797-0.41797-0.64844-0.32422-0.46094-0.60156-0.92578-0.87891-1.4336-0.14062-0.23047-0.27734-0.46094-0.41797-0.73828-0.046875-0.09375-0.09375-0.14063-0.14062-0.23047-0.046875-0.14062-0.14062-0.23047-0.18359-0.37109 0 0 0-0.046875-0.046875-0.046875-0.18359-0.32422-0.37109-0.69531-0.50781-1.0156-0.046876-0.046875 0-0.09375-0.046876-0.14062v-0.046875h-0.046874c-0.046876-0.09375-0.09375-0.23047-0.09375-0.32422-0.18359-0.46094-0.32422-0.87891-0.46094-1.3398 0-0.046874 0-0.09375-0.046875-0.14062-0.09375-0.27734-0.18359-0.60156-0.27734-0.87891 0-0.046875-0.046875-0.14062-0.046875-0.18359v-0.09375-0.09375c0-0.046876 0-0.046876-0.046875-0.09375-0.09375-0.41797-0.18359-0.78516-0.23047-1.2031v-0.23047c0-0.27734-0.046874-0.55469-0.046874-0.78516l0.042968-57.227c2.1289 1.7109 4.3945 3.3281 6.6602 4.8555 2.2656 1.5273 4.5781 2.9141 6.9375 4.2539 2.1719 1.25 4.6719 2.8672 7.2617 3.7461 0.046875 0 0.09375 0.046875 0.14062 0.046875 0.78516 0.37109 1.5742 0.73828 2.4062 1.1094 0.37109 0.14062 0.73828 0.32422 1.0625 0.46094 0.60156 0.27734 1.2031 0.50781 1.8047 0.78516 0.41797 0.18359 0.83203 0.37109 1.25 0.55469 15.215 6.4766 31.266 10.961 47.449 14.289 10.914 2.2188 21.922 3.9766 33.02 5.2734 1.25 0.14062 2.4492 0.27734 3.6992 0.41797h0.09375c0.41797 0.046875 0.78516 0.09375 1.1562 0.14062 3.3281 0.32422 6.6133 0.64844 9.8984 0.92578 3.1445 0.27734 6.2891 0.50781 9.4336 0.69531h0.09375c0.41797 0.046876 0.78516 0.046876 1.2031 0.09375 4.5312 0.27734 9.1094 0.46094 13.645 0.60156 25.207 0.73828 50.363-0.50781 75.383-3.9297 0.09375 0 0.14063 0 0.23047-0.046876 7.8164-1.1094 15.539-2.4492 23.262-4.0234 16.371-3.3281 32.465-7.9531 47.867-14.477 4.207-1.8047 8.5547-3.793 12.766-6.1055 0.09375-0.046875 0.14063-0.09375 0.23047-0.14062 0.27734-0.18359 0.60156-0.32422 0.87891-0.50781 3.0469-1.7109 6.0547-3.6055 8.875-5.6406z" fill="#fff"/>
  <path d="m536.02 452.91v55.684c-0.046875 0.37109-0.046875 0.69531-0.09375 1.0625 0 0.55469 0 1.1094-0.046875 1.6641-0.23047 1.1094-0.46094 2.1719-0.83203 3.2852-0.18359 0.50781-0.41797 1.0156-0.55469 1.5273 0.046874-0.18359 0.09375-0.32422 0.14062-0.46094-0.046874 0.09375-0.046874 0.14062-0.09375 0.18359-0.60156 1.1562-1.25 2.3125-1.9883 3.375-0.23047 0.32422-0.46094 0.69531-0.69531 1.0156 0.09375-0.09375 0.18359-0.18359 0.23047-0.27734-0.14063 0.18359-0.32422 0.37109-0.46094 0.55469-0.09375 0.09375-0.14062 0.23047-0.23047 0.32422-0.18359 0.23047-0.37109 0.46094-0.50781 0.50781-0.83203 0.92578-1.6641 1.8516-2.543 2.7305-1.0156 1.0156-2.082 1.9414-3.1445 2.8672-0.60156 0.50781-1.3867 0.97266-1.8945 1.5273-0.23047 0.18359-0.46094 0.32422-0.64844 0.50781-6.1055 4.3945-12.766 7.9531-19.609 11.008-0.83203 0.37109-1.7578 0.69531-2.543 1.1094 0.69531-0.37109 1.0156-0.55469 1.0625-0.55469-0.09375 0.046875-1.5273 0.73828-1.9883 0.92578-2.2188 0.87891-4.3945 1.7109-6.6602 2.543-4.3477 1.5742-8.7422 2.9609-13.18 4.2539-10.035 2.9141-20.211 5.2266-30.523 7.0742-2.6836 0.46094-5.4102 0.92578-8.0938 1.3867-1.25 0.18359-2.4961 0.37109-3.7461 0.55469-0.73828 0.09375-1.5273 0.23047-2.2656 0.32422-0.18359 0.046875-0.41797 0.046875-0.60156 0.09375h-0.18359-0.09375-0.14062-0.14062 0.09375c-5.875 0.83203-11.746 1.4336-17.668 1.9414-24.883 2.2188-49.996 2.3125-74.922 0.46094-6.1523-0.46094-12.301-1.0625-18.406-1.8047-1.2969-0.14063-2.5898-0.32422-3.8867-0.46094-0.14062 0-0.69531-0.09375-1.1094-0.14062h0.23047c-0.41797-0.046875-0.87891-0.14062-1.2969-0.18359-3.0078-0.41797-6.0117-0.87891-9.0195-1.3867-10.543-1.7578-20.996-3.9297-31.309-6.707-8.832-2.4062-17.48-5.2734-25.945-8.6953 0.046874 0 0.09375 0.046875 0.09375 0.046875 1.3867 0.60156-0.32422-0.09375-0.60156-0.23047 0.046875 0 0.14062 0.046875 0.27734 0.09375-0.41797-0.18359-0.83203-0.37109-1.2031-0.55469-0.83203-0.37109-1.6641-0.73828-2.4961-1.1562-1.9414-0.87891-3.8398-1.8516-5.7344-2.8203-3.1914-1.6641-6.3359-3.4688-9.3438-5.457-1.3398-0.87891-2.5898-1.8047-3.8867-2.7305 0.09375 0.09375 0.18359 0.18359 0.32422 0.23047 1.2969 1.1094-1.8945-1.3867-0.50781-0.37109 0.046876 0.046875 0.09375 0.09375 0.14063 0.09375-0.09375-0.09375-0.23047-0.18359-0.32422-0.27734-0.69531-0.60156-1.3867-1.1562-2.082-1.7578-1.8516-1.6641-3.4688-3.4688-5.0859-5.3203 0.14062 0.18359 0.23047 0.27734 0.23047 0.27734-0.09375-0.046875-0.46094-0.50781-0.78516-0.87891-0.09375-0.09375-0.14062-0.18359-0.18359-0.27734-0.41797-0.55469-0.78516-1.1562-1.1562-1.7578-0.55469-0.92578-1.0156-1.8516-1.4805-2.8203-0.046875-0.14062-0.09375-0.23047-0.14062-0.37109-0.18359-0.50781-0.32422-1.0156-0.46094-1.5273-0.14063-0.50781-0.27734-1.0156-0.37109-1.5273-0.046875-0.14062-0.046875-0.27734-0.09375-0.41797-0.046875-0.37109-0.09375-0.78516-0.09375-1.1562-0.046875-0.73828-0.23047-1.2969-0.23047-1.9883v-0.50781-0.046875c0.046875-1.0156 0-2.082 0-3.0977l0.003906-51.789c9.8516 8.0469 22.199 13.828 33.531 18.27 0.64844 0.27734 1.3398 0.50781 1.9883 0.78516h0.046876c0.69531 0.27734 1.3867 0.50781 2.082 0.73828 0.32422 0.14062 0.64844 0.23047 1.0156 0.37109 0.64844 0.23047 1.25 0.46094 1.8945 0.69531 0.41797 0.14062 0.83203 0.27734 1.25 0.41797 0.73828 0.27734 1.4805 0.50781 2.2188 0.73828 1.3398 0.46094 2.7305 0.87891 4.0703 1.2969 4.1172 1.2969 8.2305 2.4492 12.395 3.4688 4.4844 1.1094 8.9727 2.1719 13.457 3.0977h0.14062c11.562 2.3594 23.262 4.1172 34.965 5.457 8.5078 0.97266 17.066 1.7109 25.621 2.1719 0.83203 0.046875 1.7109 0.09375 2.543 0.14062 3.6992 0.18359 7.3984 0.32422 11.055 0.41797 6.6602 0.18359 13.32 0.23047 19.98 0.09375 0.83203 0 1.6172-0.046875 2.4492-0.046875h0.37109c1.0156 0 2.0352-0.046875 3.0508-0.09375 0.50781 0 1.0156-0.046875 1.5273-0.046875 8-0.27734 16-0.73828 24.004-1.4336 7.3086-0.64844 14.66-1.3867 21.969-2.4062 6.5195-0.87891 12.996-1.9414 19.469-3.1445 6.8438-1.2969 13.688-2.7734 20.441-4.5312 0.14062-0.046875 0.23047-0.046875 0.37109-0.09375 5.5508-1.4805 11.008-3.0977 16.418-4.9023 11.332-3.8398 22.66-8.4648 32.883-14.754 3.2344-1.8945 6.332-4.0703 9.293-6.4297z" fill="#fff"/>
 </g>
</svg>
