<?xml version="1.0" encoding="UTF-8"?>
<svg width="752pt" height="752pt" version="1.1" viewBox="0 0 752 752" xmlns="http://www.w3.org/2000/svg">
 <g>
  <path d="m752 376c0 134.33-71.664 258.46-188 325.62-116.34 67.168-259.66 67.168-376 0-116.34-67.164-188-191.29-188-325.62s71.664-258.46 188-325.62c116.34-67.168 259.66-67.168 376 0 116.34 67.164 188 191.29 188 325.62" fill="#45dee0"/>
  <path d="m416.73 411.52c4.7344-4.7344 4.7344-12.312 0-17.051-4.7344-4.7344-12.312-4.7344-17.051 0l-11.84 11.84 0.003906-89.504c0-6.6289-5.2109-11.84-11.84-11.84s-11.84 5.2109-11.84 11.84v89.508l-11.84-11.84c-4.7344-4.7344-12.312-4.7344-17.051 0-2.3672 2.3672-3.3164 5.2109-3.3164 8.5234 0 3.3164 0.94531 6.1562 3.3164 8.5234l32.203 32.203c4.7344 4.7344 12.312 4.7344 17.051 0z" fill="#fff"/>
  <path d="m433.78 254.77v-91.875c0-6.6289-5.2109-11.84-11.84-11.84h-91.875c-6.6289 0-11.84 5.2109-11.84 11.84v91.875c0 6.6289 5.2109 11.84 11.84 11.84h91.875c6.6289 0 11.84-5.2109 11.84-11.84z" fill="#fff"/>
  <path d="m376 600.95c-32.434 0-58.727-26.293-58.727-58.727 0-32.43 26.293-58.723 58.727-58.723 32.43 0 58.723 26.293 58.723 58.723 0 32.434-26.293 58.727-58.723 58.727" fill="#fff"/>
 </g>
</svg>
